<svg xmlns="http://www.w3.org/2000/svg" viewBox="0 0 24 24" fill="currentColor">
  <path d="M13.483 0a1.374 1.374 0 0 0-.961.438L7.116 6.226l-3.854 4.126a5.266 5.266 0 0 0-1.209 2.104 5.35 5.35 0 0 0-.125.513 5.527 5.527 0 0 0 .062 2.362 5.83 5.83 0 0 0 .349 1.017 5.938 5.938 0 0 0 1.271 1.818l4.277 4.193.039.038c2.248 2.165 5.852 2.133 8.063-.074l2.396-2.392c.54-.54.54-1.414 0-1.954l-2.396-2.392c-1.39-1.39-3.414-1.637-5.111-.735a2.17 2.17 0 0 0-1.045 1.134 2.19 2.19 0 0 0 .11 1.635 2.175 2.175 0 0 0 1.087 1.066l1.373.578c.365.153.754.232 1.144.232.748 0 1.482-.248 2.083-.703l6.577-5.021a1.375 1.375 0 0 0 0-2.166l-6.577-5.021c-.601-.455-1.335-.703-2.083-.703z"/>
</svg>
